<?xml version="1.0" encoding="iso-8859-1"?>
<svg
  height="800px"
  width="800px"
  version="1.1"
  id="Layer_1"
  xmlns="http://www.w3.org/2000/svg"
  xmlns:xlink="http://www.w3.org/1999/xlink"
  viewBox="0 0 309.417 309.417"
  xml:space="preserve"
>
  <g>
    <path
      style="fill: #4effbb"
      d="M257.337,109.239l2.625-3.15c0.444,0.081,0.888,0.121,1.332,0.121c0.242,0,0.444-0.04,0.646-0.04
		c2.14-0.162,4.119-1.212,5.492-2.867l4.442-5.33c2.867-3.392,2.464-8.521-0.929-11.428l-9.53-8.198
		c-3.392-2.908-8.44-2.504-11.307,0.929l-4.483,5.331c-1.373,1.656-2.059,3.796-1.857,5.936c0,0.283,0.081,0.565,0.121,0.808
		l-1.777,2.181c-16.84-14.538-37.637-24.553-60.494-28.026V55.288h6.057c4.402,0,7.996-3.634,7.996-8.117l-0.04-28.47
		c0-4.482-3.594-8.117-8.036-8.117l-50.882,0.081c-4.402,0-7.996,3.635-7.996,8.117l0.04,28.47c0,4.482,3.594,8.117,8.036,8.117
		h5.977V65.99C85.831,75.964,42.379,126.321,42.379,186.774c0,67.601,54.355,122.643,121.149,122.643
		s121.149-55.042,121.149-122.643C284.676,157.376,274.419,130.4,257.337,109.239z"
    />
    <g>
      <g id="XMLID_13_">
        <g>
          <g>
            <polygon style="fill: #302c58" points="161.96,16.274 161.96,28.47 127.15,28.51 127.15,16.315 					" />
          </g>
          <g>
            <path
              style="fill: #222051"
              d="M239.697,98.655c17.082,21.161,27.339,48.136,27.339,77.535
						c0,67.601-54.355,122.643-121.149,122.643S24.739,243.791,24.739,176.19c0-60.453,43.452-110.811,100.392-120.785v-10.62
						h-5.977c-4.442,0-8.036-3.635-8.036-8.117l-0.04-28.47c0-4.483,3.594-8.117,7.996-8.117L169.956,0
						c4.442,0,8.036,3.634,8.036,8.117l0.04,28.47c0,4.482-3.594,8.117-7.996,8.117h-6.057v10.217
						c22.857,3.473,43.654,13.488,60.494,28.026l1.777-2.181c-0.04-0.242-0.121-0.525-0.121-0.808
						c-0.202-2.14,0.485-4.281,1.858-5.936l4.483-5.331c2.867-3.433,7.915-3.836,11.307-0.929l9.53,8.198
						c3.392,2.908,3.796,8.036,0.929,11.428l-4.442,5.331c-1.373,1.656-3.352,2.706-5.492,2.867c-0.202,0-0.404,0.04-0.646,0.04
						c-0.444,0-0.888-0.04-1.333-0.121L239.697,98.655z M250.964,176.19c0-58.636-47.127-106.368-105.076-106.368
						c-57.95,0-105.076,47.732-105.076,106.368c0,58.676,47.127,106.369,105.076,106.369
						C203.837,282.559,250.964,234.867,250.964,176.19z M161.96,28.47V16.274l-34.81,0.04V28.51L161.96,28.47z M147.908,53.588
						v-8.157h-6.704v8.238c1.575-0.04,3.109-0.121,4.685-0.121C146.574,53.548,147.22,53.588,147.908,53.588z"
            />
          </g>
        </g>
      </g>
    </g>
    <g>
      <path
        style="fill: #302c58"
        d="M145.889,69.822c-57.95,0-105.076,47.732-105.076,106.368c0,58.676,47.127,106.369,105.076,106.369
			s105.076-47.692,105.076-106.369C250.964,117.554,203.837,69.822,145.889,69.822z M217.169,104.045
			c3.138,3.176,3.138,8.321,0,11.497l-55.381,56.059c0.302,1.26,0.507,2.558,0.507,3.912c0,9.168-7.342,16.599-16.398,16.599
			c-9.057,0-16.399-7.431-16.399-16.599s7.342-16.6,16.399-16.6c1.713,0,3.333,0.34,4.886,0.834l55.029-55.703
			C208.945,100.869,214.033,100.869,217.169,104.045z M153.531,273.457c-59.14,4.635-108.296-45.123-103.724-104.985
			c3.64-47.657,41.959-86.154,89.056-89.59c20.136-1.469,39.036,3.434,55.062,12.84c4.51,2.647,5.165,9.003,1.478,12.734
			c-2.581,2.612-6.56,3.127-9.72,1.28c-15.005-8.77-32.982-12.853-52.11-9.897c-35.993,5.562-64.24,35.853-67.637,72.549
			c-4.735,51.14,37.649,93.832,88.227,88.685c36.016-3.665,65.679-32.115,71.108-68.342c2.88-19.216-1-37.359-9.528-52.501
			c-1.789-3.178-1.274-7.161,1.281-9.747c3.801-3.847,10.096-2.849,12.751,1.881c9.038,16.106,13.709,35.021,12.232,55.157
			C238.52,231.106,200.529,269.773,153.531,273.457z"
      />
    </g>
  </g>
</svg>
